<svg width="213" height="67" viewBox="0 0 213 67" fill="none" xmlns="http://www.w3.org/2000/svg">
<path d="M212.909 0C212.956 0.017859 212.955 0.0357179 212.904 0.0829883C208.551 0.1124 204.249 0.1124 199.854 0.1124C200 0.279548 200.081 0.383186 200.173 0.474864C204.319 4.59649 208.466 8.7174 212.616 12.836C212.723 12.9422 212.857 13.0213 212.979 13.1131C212.993 13.1577 213.006 13.2023 212.969 13.2809C212.33 13.319 211.743 13.3259 211.155 13.3267C207.351 13.3322 203.547 13.3364 199.743 13.341C199.743 13.341 199.74 13.3361 199.745 13.2844C199.749 8.82183 199.749 4.41092 199.749 0C204.12 0 208.49 0 212.909 0Z" fill="#835EA4"/>
<path d="M199.701 0C199.75 4.41092 199.75 8.82183 199.746 13.2818C195.403 13.3275 191.063 13.3241 186.68 13.2701C186.725 13.1146 186.805 13.0024 186.901 12.9058C190.071 9.72779 193.242 6.55049 196.414 3.37499C197.378 2.40989 198.349 1.45105 199.314 0.487128C199.414 0.387504 199.498 0.272761 199.636 0.110854C197.429 0.110854 195.315 0.10826 193.202 0.111561C190.949 0.11508 188.697 0.124174 186.422 0.126952C186.4 0.12307 186.355 0.114327 186.355 0.114327C186.355 0.0946542 186.354 0.0749819 186.344 0.0276549C190.773 0 195.213 0 199.701 0Z" fill="#F1907C"/>
<path d="M199.744 13.3877C203.548 13.3364 207.352 13.3322 211.155 13.3267C211.743 13.3259 212.331 13.319 212.961 13.3046C213.009 13.3558 213.014 13.4173 212.964 13.5147C211.313 15.1281 209.717 16.7048 208.122 18.2831C205.338 21.0393 202.554 23.7963 199.77 26.553C199.763 24.4096 199.755 22.2663 199.75 20.1229C199.746 17.8934 199.746 15.664 199.744 13.3877Z" fill="#BEA9CF"/>
<path d="M186.33 0.139415C186.354 0.114331 186.399 0.123074 186.419 0.172949C186.438 4.58536 186.438 8.9479 186.438 13.3104C185.833 13.3191 185.229 13.3348 184.624 13.3351C180.817 13.3374 177.01 13.3363 173.058 13.3363C177.529 8.89089 181.917 4.5277 186.33 0.139415Z" fill="#ED6B50"/>
<path d="M212.956 26.6429C212.853 26.7944 212.772 26.9674 212.644 27.0944C209.019 30.6985 205.393 34.3005 201.76 37.8961C201.136 38.5132 200.482 39.0999 199.756 39.781C199.756 35.3716 199.756 31.0502 199.81 26.6832C204.228 26.6393 208.592 26.6411 212.956 26.6429Z" fill="#A6DAD8"/>
<path d="M186.471 13.3144C186.44 8.94789 186.44 4.58535 186.443 0.17682C188.698 0.124168 190.95 0.115073 193.202 0.111555C195.316 0.108253 197.429 0.110848 199.636 0.110848C199.499 0.272755 199.414 0.387497 199.314 0.487121C198.349 1.45104 197.379 2.40988 196.414 3.37498C193.242 6.55048 190.072 9.72778 186.902 12.9058C186.806 13.0024 186.725 13.1146 186.633 13.2535C186.587 13.2978 186.545 13.3081 186.471 13.3144Z" fill="#E84624"/>
<path d="M212.964 26.5951C208.593 26.6411 204.229 26.6393 199.818 26.6346C199.771 26.6316 199.764 26.5924 199.767 26.5727C202.554 23.7963 205.337 21.0393 208.122 18.2831C209.716 16.7049 211.312 15.1281 212.942 13.5383C212.975 17.8664 212.974 22.2068 212.964 26.5951Z" fill="#6BC2BE"/>
<path d="M212.983 13.065C212.857 13.0213 212.722 12.9422 212.615 12.8359C208.466 8.71737 204.319 4.59646 200.172 0.474834C200.08 0.383155 200 0.279517 199.854 0.112369C204.248 0.112369 208.55 0.112369 212.901 0.109741C212.963 0.259498 212.988 0.411878 212.988 0.564268C212.99 4.71516 212.989 8.86604 212.983 13.065Z" fill="#66398E"/>
<path d="M112.558 37.9952C111.83 35.4815 110.503 34.4864 107.911 34.4708C106.093 34.4599 104.402 34.825 103.018 36.0966C101.871 37.1505 101.183 38.4908 100.894 39.9735C100.613 41.4158 100.42 42.8988 100.41 44.3654C100.362 51.3696 100.389 58.3743 100.389 65.3788C100.389 65.584 100.389 65.7892 100.389 66.0465C99.8438 66.13 99.3223 66.2268 98.7966 66.2875C95.77 66.6372 92.7506 66.5858 89.7342 66.1449C89.2833 66.079 89.1939 65.9075 89.1946 65.4891C89.2075 58.1921 89.2259 50.8949 89.1865 43.5981C89.178 42.0243 89.0081 40.4438 88.7956 38.8821C88.6889 38.0979 88.391 37.316 88.0528 36.5914C87.4836 35.3719 86.4156 34.7441 85.1073 34.5676C82.4604 34.2104 79.7973 34.753 78.2592 37.0018C77.47 38.1557 76.953 39.4398 76.7826 40.8141C76.5969 42.311 76.4691 43.8247 76.4616 45.3319C76.4282 52.0092 76.4471 58.6868 76.4471 65.3643C76.4471 65.57 76.4471 65.7758 76.4471 66.0667C75.5324 66.176 74.6313 66.2998 73.7266 66.3887C71.5292 66.6047 69.3332 66.5552 67.1405 66.3105C66.9176 66.2857 66.6961 66.2471 66.4742 66.2127C66.0837 66.1521 65.51 66.22 65.3487 65.9959C65.1389 65.7042 65.2366 65.1802 65.2365 64.7561C65.2329 51.9346 65.2336 39.1131 65.2336 26.2917C65.2336 26.086 65.2336 25.8804 65.2336 25.5891C66 25.466 66.7552 25.2923 67.5195 25.2321C69.6642 25.0632 71.8044 25.0725 73.9297 25.4995C74.3338 25.5808 74.5542 25.7524 74.6345 26.1259C74.9302 27.5003 75.2221 28.8755 75.5102 30.2514C75.5629 30.5029 75.5913 30.7594 75.6482 31.1248C75.7778 30.9389 75.8615 30.8295 75.9341 30.7132C77.859 27.6304 80.6286 25.7013 84.1726 24.9213C86.0815 24.5012 88.0295 24.5956 89.9623 24.8735C92.0829 25.1783 94.0606 25.8401 95.7788 27.1568C97.2855 28.3115 98.3206 29.8092 99.0305 31.5454C99.0557 31.6072 99.0854 31.6672 99.1185 31.7403C99.6648 30.9816 100.153 30.2025 100.741 29.5066C102.33 27.625 104.162 26.0596 106.576 25.2816C108.558 24.6426 110.593 24.5752 112.638 24.7225C114.545 24.8598 116.399 25.2615 118.122 26.1372C120.833 27.5146 122.424 29.7827 123.339 32.5891C124.108 34.9511 124.371 37.3951 124.379 39.8564C124.407 48.3924 124.387 56.9287 124.399 65.4649C124.399 65.8968 124.315 66.0809 123.833 66.1477C120.694 66.583 117.557 66.6742 114.413 66.2174C114.021 66.1604 113.627 66.1207 113.167 66.0649C113.167 65.8424 113.167 65.6423 113.167 65.4421C113.163 57.8525 113.167 50.263 113.15 42.6734C113.147 41.1085 113.017 39.5501 112.558 37.9952Z" fill="#565656"/>
<path d="M33.7182 60.1053C33.7182 61.482 33.7051 62.8073 33.7271 64.132C33.7327 64.4739 33.6112 64.6134 33.2955 64.7006C30.0132 65.6075 26.712 66.4068 23.3075 66.7337C20.3004 67.0224 17.2939 67.0961 14.2864 66.8126C11.1481 66.5167 8.08369 65.9262 5.37327 64.1974C2.19145 62.168 0.436384 59.25 0.121576 55.5219C-0.0460808 53.5364 -0.12468 51.5337 0.462412 49.583C1.33361 46.6883 3.20098 44.5708 5.74933 43.012C8.03873 41.6116 10.5694 40.8954 13.2081 40.4935C16.2426 40.0315 19.2821 40.0933 22.3264 40.3496C22.4619 40.361 22.5993 40.3511 22.734 40.3511C23.1269 37.4976 22.1466 34.8176 18.9863 33.949C16.8559 33.3634 14.6692 33.358 12.4878 33.5028C10.0788 33.6627 7.73746 34.1923 5.45484 34.9719C5.20467 35.0573 5.05027 35.0314 4.91309 34.7716C3.69243 32.46 2.87015 30.0452 2.88188 27.3976C2.88338 27.0588 2.95498 26.8896 3.31201 26.7748C6.65055 25.7012 10.0653 25.0331 13.5651 24.7728C15.7311 24.6117 17.8935 24.6075 20.0469 24.8892C23.2876 25.3132 26.3076 26.3022 28.887 28.3912C31.1138 30.1947 32.3772 32.5688 33.0692 35.2834C33.556 37.1932 33.7205 39.1409 33.7194 41.1069C33.716 47.4225 33.7182 53.7381 33.7182 60.1053ZM22.8165 49.3137C22.8165 48.7163 22.8165 48.1188 22.8165 47.4942C22.1394 47.4138 21.5208 47.3495 20.9049 47.2657C18.7871 46.9773 16.6879 47.0661 14.6337 47.6598C12.5234 48.2696 10.9083 49.4243 10.5605 51.7606C10.0908 54.9162 11.2433 57.0893 14.4157 57.9576C16.1731 58.4387 17.9821 58.4282 19.7793 58.3013C20.7873 58.2302 21.7836 57.9966 22.8165 57.8312C22.8165 54.9844 22.8165 52.2007 22.8165 49.3137Z" fill="#565656"/>
<path d="M161.005 25.4003C164.124 24.8142 167.227 24.5317 170.352 24.7051C173.831 24.8981 177.161 25.6514 180.124 27.6038C182.907 29.4378 184.536 32.0474 185.346 35.2115C185.823 37.0714 186.001 38.9663 186.001 40.8811C186.001 48.5919 185.996 56.3026 186.013 64.0133C186.014 64.4698 185.851 64.6357 185.443 64.7491C182.427 65.5867 179.388 66.3355 176.273 66.6761C172.842 67.0511 169.402 67.1359 165.958 66.7412C163.398 66.4478 160.899 65.9522 158.603 64.7377C154.878 62.7681 152.833 59.6627 152.379 55.5154C152.119 53.1489 152.175 50.7979 153.116 48.5657C154.399 45.5239 156.722 43.4996 159.69 42.1398C162.093 41.0392 164.639 40.4362 167.257 40.3108C169.707 40.1934 172.169 40.3269 174.625 40.3497C174.776 40.3511 174.927 40.3499 175.114 40.3499C175.174 38.5691 175.084 36.8725 173.834 35.4711C172.808 34.3224 171.446 33.8739 169.977 33.667C165.849 33.0857 161.834 33.6137 157.907 34.9196C157.487 35.0594 157.316 34.979 157.116 34.5953C155.947 32.3515 155.189 30.007 155.168 27.4545C155.164 27.0733 155.23 26.8655 155.645 26.7636C157.422 26.3284 159.19 25.8598 161.005 25.4003ZM175.129 54.5803C175.129 52.2311 175.129 49.8819 175.129 47.5296C172.563 47.0731 170.059 46.909 167.551 47.4913C166.449 47.7474 165.399 48.1357 164.504 48.8463C163.071 49.9848 162.717 51.5502 162.765 53.2703C162.825 55.382 163.83 56.8876 165.806 57.6262C166.777 57.9887 167.838 58.1704 168.875 58.2849C170.969 58.5163 173.044 58.2903 175.129 57.782C175.129 56.7411 175.129 55.7124 175.129 54.5803Z" fill="#565656"/>
<path d="M52.492 48.2293C52.5715 50.0822 52.6318 51.8846 52.7436 53.684C52.7729 54.1552 52.9298 54.6275 53.0836 55.0807C53.5993 56.6006 54.7109 57.3536 56.2915 57.5202C57.5439 57.6521 58.7776 57.5711 60.007 57.3293C60.1065 57.3097 60.2105 57.3132 60.395 57.3C60.5762 58.157 60.8265 58.9986 60.9196 59.8569C61.0806 61.3408 61.1852 62.8337 61.2371 64.3254C61.2892 65.8248 61.2569 65.8795 59.7915 66.1119C56.4181 66.6467 53.0373 66.8339 49.7128 65.8169C45.4431 64.5108 42.7432 61.7043 41.8695 57.3293C41.5451 55.705 41.3597 54.0255 41.3552 52.3704C41.316 38.0898 41.3326 23.809 41.3326 9.52827C41.3326 9.3244 41.3326 9.12052 41.3326 8.84214C42.3901 8.71837 43.4131 8.56191 44.4421 8.48546C46.9532 8.29891 49.4549 8.40026 51.9485 8.77222C52.3965 8.83904 52.5019 8.98338 52.5015 9.41316C52.4898 22.3346 52.492 35.2561 52.492 48.2293Z" fill="#565656"/>
<path d="M141.35 25.5985C142.821 25.5985 144.24 25.5985 145.693 25.5985C145.693 39.0945 145.693 52.5576 145.693 66.0166C142.626 66.6545 138.21 66.7065 134.798 66.0238C134.798 55.4071 134.798 44.78 134.798 34.1017C133.006 34.1017 131.265 34.1017 129.488 34.1017C128.867 31.2509 128.828 28.4502 129.483 25.5985C133.437 25.5985 137.368 25.5985 141.35 25.5985Z" fill="#565656"/>
<path d="M132.633 12.9229C132.769 11.4546 132.897 10.0353 133.056 8.61938C133.07 8.49248 133.264 8.30477 133.397 8.28336C137.048 7.69643 140.703 7.7103 144.354 8.28529C144.481 8.3052 144.654 8.50185 144.676 8.63685C145.086 11.1627 145.08 13.7052 144.929 16.2498C144.888 16.9516 144.747 17.648 144.715 18.3497C144.696 18.7734 144.475 18.8779 144.134 18.8961C142.182 19.0004 140.231 19.1682 138.278 19.18C136.743 19.1893 135.206 19.0017 133.669 18.9075C133.251 18.8818 133.035 18.7439 133.009 18.2616C132.912 16.4972 132.762 14.7356 132.633 12.9229Z" fill="#565656"/>
</svg>
