<svg width="126" height="130" viewBox="0 0 126 130" fill="none" xmlns="http://www.w3.org/2000/svg">
<path d="M100.082 57.2648L113.418 70.4603L109.128 75.0622L95.0249 61.1138L100.082 57.2648ZM125.406 48.7806L125.304 42.4216L106.225 42.8759L105.006 49.2678L125.406 48.7806ZM55.7165 13.3642L51.4266 17.9661L65.5179 31.919L69.0519 26.5597L55.7165 13.3642ZM108.091 12.1171L97.3355 23.6473L101.77 28.0408L112.525 16.5107L108.091 12.1171ZM82.7627 19.6598L82.4375 3.27578e-05L76.2666 0.150326L76.6076 21.1678L82.7627 19.6598ZM64.9578 129.576L53.2259 97.1437L24.7472 128.807L4.80761 109.838L33.7232 77.5017L-0.000465276 67.9302L91.4941 32.3004L64.9578 129.576ZM55.5248 85.2492L64.1457 109.081L82.2579 42.6826L19.8979 66.9669L45.1087 74.1197L13.5239 109.442L24.4327 119.817L55.5248 85.2492Z" fill="#3BC8B8"/>
</svg>
