<svg width="994" height="1171" viewBox="0 0 994 1171" fill="none" xmlns="http://www.w3.org/2000/svg">
<ellipse cx="378.5" cy="585.5" rx="615.5" ry="585.5" fill="url(#paint0_radial_1240_191)"/>
<mask id="mask0_1240_191" style="mask-type:luminance" maskUnits="userSpaceOnUse" x="-4" y="174" width="839" height="659">
<path d="M-4.00012 832.516L831.316 826.265L834.523 174.65L-0.793945 180.901L-4.00012 832.516Z" fill="white"/>
</mask>
<g mask="url(#mask0_1240_191)">
<path d="M-63.9826 103.166L898.131 88.4107L894.505 903.999L-67.608 918.754L-63.9826 103.166ZM896.879 90.1126L-62.7468 104.829L-66.3575 917.052L893.269 902.335L896.879 90.1126Z" fill="#E9DDF4" fill-opacity="0.22"/>
<path d="M-63.7083 214.316L896.289 214.014L896.295 212.708L-63.7019 213.009L-63.7083 214.316Z" fill="#E9DDF4" fill-opacity="0.22"/>
<path d="M-63.8568 255.742L896.141 255.446L896.147 254.139L-63.8504 254.435L-63.8568 255.742Z" fill="#E9DDF4" fill-opacity="0.22"/>
<path d="M-64.0033 297.181L895.994 296.876L896.001 295.57L-63.9968 295.875L-64.0033 297.181Z" fill="#E9DDF4" fill-opacity="0.22"/>
<path d="M-64.1507 338.613L895.847 338.308L895.853 337.001L-64.1443 337.307L-64.1507 338.613Z" fill="#E9DDF4" fill-opacity="0.22"/>
<path d="M-64.2981 380.041L895.699 379.739L895.706 378.433L-64.2917 378.734L-64.2981 380.041Z" fill="#E9DDF4" fill-opacity="0.22"/>
<path d="M-64.4456 421.473L895.552 421.171L895.558 419.864L-64.4392 420.166L-64.4456 421.473Z" fill="#E9DDF4" fill-opacity="0.22"/>
<path d="M-64.593 462.904L895.404 462.602L895.411 461.295L-64.5866 461.598L-64.593 462.904Z" fill="#E9DDF4" fill-opacity="0.22"/>
<path d="M-64.7405 504.335L895.257 504.033L895.263 502.727L-64.7341 503.028L-64.7405 504.335Z" fill="#E9DDF4" fill-opacity="0.22"/>
<path d="M-64.888 545.766L895.109 545.464L895.116 544.158L-64.8816 544.459L-64.888 545.766Z" fill="#E9DDF4" fill-opacity="0.22"/>
<path d="M-65.0354 587.198L894.962 586.896L894.968 585.59L-65.029 585.892L-65.0354 587.198Z" fill="#E9DDF4" fill-opacity="0.22"/>
<path d="M-65.1829 628.631L894.814 628.328L894.821 627.021L-65.1765 627.325L-65.1829 628.631Z" fill="#E9DDF4" fill-opacity="0.22"/>
<path d="M-65.3284 670.059L894.669 669.759L894.675 668.452L-65.322 668.752L-65.3284 670.059Z" fill="#E9DDF4" fill-opacity="0.22"/>
<path d="M-65.4777 711.497L894.52 711.19L894.526 709.884L-65.4713 710.19L-65.4777 711.497Z" fill="#E9DDF4" fill-opacity="0.22"/>
<path d="M-65.6243 752.923L894.373 752.622L894.379 751.315L-65.6179 751.616L-65.6243 752.923Z" fill="#E9DDF4" fill-opacity="0.22"/>
<path d="M-65.7728 794.357L894.225 794.052L894.231 792.746L-65.7663 793.051L-65.7728 794.357Z" fill="#E9DDF4" fill-opacity="0.22"/>
<path d="M19.7433 917.894L21.6191 917.892L25.3984 89.2719L23.5225 89.2738L19.7433 917.894Z" fill="#E9DDF4" fill-opacity="0.22"/>
<path d="M48.8331 917.893L50.709 917.891L54.4883 89.2712L52.6124 89.2731L48.8331 917.893Z" fill="#E9DDF4" fill-opacity="0.22"/>
<path d="M77.9239 917.894L79.7998 917.892L83.5791 89.2719L81.7032 89.2738L77.9239 917.894Z" fill="#E9DDF4" fill-opacity="0.22"/>
<path d="M107.015 917.893L108.891 917.891L112.67 89.2714L110.794 89.2733L107.015 917.893Z" fill="#E9DDF4" fill-opacity="0.22"/>
<path d="M136.103 917.894L137.979 917.892L141.737 89.2719L139.862 89.2744L136.103 917.894Z" fill="#E9DDF4" fill-opacity="0.22"/>
<path d="M165.194 917.894L167.07 917.892L170.849 89.2719L168.973 89.2739L165.194 917.894Z" fill="#E9DDF4" fill-opacity="0.22"/>
<path d="M194.285 917.894L196.161 917.892L199.94 89.2719L198.065 89.2738L194.285 917.894Z" fill="#E9DDF4" fill-opacity="0.22"/>
<path d="M223.377 917.894L225.253 917.892L229.032 89.2719L227.156 89.2738L223.377 917.894Z" fill="#E9DDF4" fill-opacity="0.22"/>
<path d="M252.466 917.894L254.342 917.892L258.121 89.2719L256.245 89.2738L252.466 917.894Z" fill="#E9DDF4" fill-opacity="0.22"/>
<path d="M281.558 917.894L283.434 917.892L287.212 89.2719L285.336 89.2739L281.558 917.894Z" fill="#E9DDF4" fill-opacity="0.22"/>
<path d="M310.648 917.893L312.524 917.892L316.309 89.2719L314.433 89.2735L310.648 917.893Z" fill="#E9DDF4" fill-opacity="0.22"/>
<path d="M339.738 917.894L341.613 917.892L345.367 89.2719L343.492 89.2744L339.738 917.894Z" fill="#E9DDF4" fill-opacity="0.22"/>
<path d="M368.83 917.894L370.706 917.892L374.483 89.2719L372.607 89.2739L368.83 917.894Z" fill="#E9DDF4" fill-opacity="0.22"/>
<path d="M397.919 917.893L399.795 917.892L403.586 89.2719L401.71 89.2731L397.919 917.893Z" fill="#E9DDF4" fill-opacity="0.22"/>
<path d="M427.011 917.894L428.887 917.892L432.666 89.2719L430.79 89.2738L427.011 917.894Z" fill="#E9DDF4" fill-opacity="0.22"/>
<path d="M456.101 917.894L457.977 917.892L461.756 89.2717L459.88 89.2736L456.101 917.894Z" fill="#E9DDF4" fill-opacity="0.22"/>
<path d="M485.191 917.894L487.067 917.892L490.847 89.2719L488.971 89.2738L485.191 917.894Z" fill="#E9DDF4" fill-opacity="0.22"/>
<path d="M514.282 917.894L516.158 917.892L519.937 89.2719L518.062 89.2738L514.282 917.894Z" fill="#E9DDF4" fill-opacity="0.22"/>
<path d="M543.372 917.894L545.248 917.892L549.026 89.2719L547.15 89.2739L543.372 917.894Z" fill="#E9DDF4" fill-opacity="0.22"/>
<path d="M572.465 917.894L574.341 917.892L578.12 89.2719L576.244 89.2738L572.465 917.894Z" fill="#E9DDF4" fill-opacity="0.22"/>
<path d="M601.554 917.894L603.43 917.892L607.209 89.2719L605.333 89.2738L601.554 917.894Z" fill="#E9DDF4" fill-opacity="0.22"/>
<path d="M630.645 917.894L632.521 917.892L636.3 89.2719L634.424 89.2738L630.645 917.894Z" fill="#E9DDF4" fill-opacity="0.22"/>
<path d="M659.735 917.893L661.611 917.892L665.406 89.2719L663.53 89.2727L659.735 917.893Z" fill="#E9DDF4" fill-opacity="0.22"/>
<path d="M688.826 917.894L690.701 917.892L694.465 89.2719L692.59 89.2743L688.826 917.894Z" fill="#E9DDF4" fill-opacity="0.22"/>
<path d="M717.916 917.894L719.792 917.892L723.571 89.2719L721.696 89.2738L717.916 917.894Z" fill="#E9DDF4" fill-opacity="0.22"/>
<path d="M747.007 917.894L748.883 917.892L752.662 89.2719L750.786 89.2738L747.007 917.894Z" fill="#E9DDF4" fill-opacity="0.22"/>
<path d="M776.097 917.894L777.973 917.892L781.752 89.2717L779.876 89.2736L776.097 917.894Z" fill="#E9DDF4" fill-opacity="0.22"/>
<path d="M805.188 917.893L807.064 917.892L810.855 89.2719L808.979 89.2731L805.188 917.893Z" fill="#E9DDF4" fill-opacity="0.22"/>
<path d="M834.287 917.894L836.154 917.892L839.863 89.272L837.996 89.2745L834.287 917.894Z" fill="#E9DDF4" fill-opacity="0.22"/>
</g>
<defs>
<radialGradient id="paint0_radial_1240_191" cx="0" cy="0" r="1" gradientUnits="userSpaceOnUse" gradientTransform="translate(378.5 585.5) scale(615.5 585.5)">
<stop stop-color="#A676D1"/>
<stop offset="1" stop-color="#F8F8F8" stop-opacity="0.09"/>
</radialGradient>
</defs>
</svg>
