<svg width="191" height="60" viewBox="0 0 191 60" fill="none" xmlns="http://www.w3.org/2000/svg">
<path d="M190.919 0C190.961 0.0159932 190.96 0.0319862 190.914 0.074318C187.011 0.100657 183.153 0.100657 179.212 0.100657C179.343 0.250342 179.415 0.343152 179.498 0.425252C183.216 4.11627 186.935 7.80664 190.656 11.4949C190.752 11.5901 190.872 11.6609 190.981 11.7431C190.994 11.783 191.006 11.8229 190.973 11.8934C190.4 11.9275 189.873 11.9336 189.346 11.9344C185.935 11.9393 182.524 11.943 179.113 11.9472C179.113 11.9472 179.11 11.9428 179.114 11.8965C179.118 7.90016 179.118 3.95008 179.118 0C183.037 0 186.956 0 190.919 0Z" fill="#DBCFE5"/>
<path d="M179.075 0C179.118 3.95008 179.118 7.90016 179.115 11.8942C175.22 11.9351 171.329 11.9321 167.398 11.8837C167.439 11.7445 167.511 11.644 167.597 11.5575C170.44 8.71146 173.283 5.86612 176.127 3.02238C176.992 2.15811 177.862 1.29945 178.728 0.436234C178.817 0.347019 178.893 0.244264 179.016 0.0992725C177.037 0.0992725 175.142 0.0969491 173.247 0.0999058C171.227 0.103057 169.207 0.111201 167.167 0.113689C167.147 0.110212 167.107 0.102382 167.107 0.102382C167.107 0.0847651 167.107 0.0671481 167.097 0.0247656C171.069 0 175.05 0 179.075 0Z" fill="#BEA9CF"/>
<path d="M179.114 11.989C182.524 11.943 185.935 11.9392 189.346 11.9343C189.873 11.9336 190.4 11.9275 190.966 11.9146C191.009 11.9604 191.013 12.0155 190.968 12.1027C189.488 13.5475 188.056 14.9595 186.627 16.3729C184.13 18.8411 181.633 21.3101 179.137 23.7788C179.131 21.8594 179.123 19.9399 179.119 18.0205C179.115 16.0239 179.116 14.0274 179.114 11.989Z" fill="#BEA9CF"/>
<path d="M167.085 0.124971C167.106 0.102508 167.147 0.110338 167.164 0.155001C167.182 4.10642 167.182 8.01318 167.182 11.9199C166.639 11.9277 166.097 11.9417 165.555 11.9421C162.141 11.9441 158.728 11.9431 155.183 11.9431C159.193 7.96213 163.128 4.05478 167.085 0.124971Z" fill="#DBCFE5"/>
<path d="M190.961 23.8595C190.868 23.9952 190.796 24.1501 190.681 24.2638C187.431 27.4915 184.179 30.7171 180.921 33.937C180.362 34.4897 179.775 35.015 179.124 35.625C179.124 31.6763 179.124 27.8064 179.173 23.8956C183.135 23.8563 187.048 23.8579 190.961 23.8595Z" fill="#DBCFE5"/>
<path d="M167.211 11.9231C167.183 8.01279 167.183 4.10604 167.185 0.158092C169.207 0.110941 171.227 0.102797 173.247 0.0996456C175.142 0.0966889 177.037 0.0990123 179.016 0.0990123C178.893 0.244004 178.817 0.346759 178.728 0.435974C177.862 1.29919 176.992 2.15785 176.127 3.02212C173.283 5.86586 170.44 8.7112 167.597 11.5572C167.511 11.6437 167.439 11.7442 167.356 11.8686C167.315 11.9082 167.277 11.9175 167.211 11.9231Z" fill="#F8F4FB"/>
<path d="M190.968 23.8166C187.048 23.8579 183.135 23.8563 179.18 23.852C179.138 23.8493 179.131 23.8142 179.134 23.7966C181.632 21.3103 184.129 18.8413 186.625 16.3731C188.055 14.9597 189.487 13.5477 190.948 12.124C190.977 15.9999 190.976 19.8869 190.968 23.8166Z" fill="#F8F4FB"/>
<path d="M190.985 11.6999C190.872 11.6607 190.751 11.5899 190.655 11.4947C186.934 7.80648 183.216 4.11611 179.497 0.425094C179.415 0.342993 179.343 0.250183 179.212 0.100498C183.152 0.100498 187.01 0.100498 190.911 0.0981445C190.967 0.232255 190.99 0.368715 190.99 0.505184C190.991 4.2224 190.99 7.93962 190.985 11.6999Z" fill="#F8F4FB"/>
<path d="M100.932 34.0256C100.279 31.7745 99.0889 30.8834 96.765 30.8694C95.1345 30.8596 93.6183 31.1866 92.3774 32.3254C91.3489 33.2691 90.7319 34.4694 90.4728 35.7972C90.2208 37.0888 90.048 38.4169 90.0389 39.7303C89.9953 46.0027 90.0194 52.2755 90.0194 58.5482C90.0194 58.732 90.0194 58.9157 90.0194 59.1462C89.5309 59.2209 89.0632 59.3076 88.5918 59.362C85.8778 59.6752 83.1703 59.6291 80.4654 59.2343C80.0611 59.1753 79.9809 59.0217 79.9816 58.647C79.9932 52.1124 80.0096 45.5776 79.9743 39.0431C79.9667 37.6338 79.8143 36.2184 79.6238 34.8198C79.5281 34.1175 79.261 33.4173 78.9577 32.7684C78.4473 31.6763 77.4897 31.1141 76.3165 30.956C73.9429 30.6362 71.5549 31.1221 70.1756 33.136C69.468 34.1693 69.0044 35.3193 68.8516 36.55C68.6851 37.8905 68.5705 39.2461 68.5637 40.5957C68.5338 46.5754 68.5508 52.5554 68.5508 58.5352C68.5508 58.7195 68.5508 58.9038 68.5508 59.1643C67.7305 59.2622 66.9225 59.373 66.1113 59.4526C64.1408 59.646 62.1716 59.6017 60.2054 59.3826C60.0055 59.3603 59.8069 59.3258 59.6079 59.295C59.2577 59.2407 58.7432 59.3015 58.5987 59.1008C58.4105 58.8397 58.4981 58.3704 58.498 57.9906C58.4948 46.5087 58.4954 35.0267 58.4954 23.5448C58.4954 23.3606 58.4954 23.1764 58.4954 22.9156C59.1827 22.8054 59.8599 22.6499 60.5452 22.5959C62.4684 22.4446 64.3876 22.453 66.2933 22.8354C66.6557 22.9081 66.8533 23.0619 66.9254 23.3963C67.1905 24.6271 67.4522 25.8587 67.7106 27.0909C67.7578 27.316 67.7833 27.5457 67.8343 27.873C67.9506 27.7065 68.0256 27.6085 68.0907 27.5044C69.8168 24.7436 72.3004 23.0161 75.4783 22.3176C77.19 21.9414 78.9369 22.0259 80.67 22.2747C82.5715 22.5477 84.345 23.1404 85.8857 24.3195C87.2368 25.3536 88.165 26.6948 88.8015 28.2496C88.8242 28.305 88.8508 28.3587 88.8805 28.4241C89.3703 27.7447 89.8081 27.0471 90.3353 26.4238C91.7606 24.7388 93.4032 23.3369 95.5673 22.6402C97.3447 22.068 99.1695 22.0077 101.003 22.1395C102.714 22.2625 104.376 22.6222 105.921 23.4064C108.352 24.6399 109.779 26.6711 110.599 29.1843C111.289 31.2995 111.525 33.4882 111.532 35.6923C111.557 43.3366 111.539 50.981 111.549 58.6253C111.55 59.0121 111.474 59.177 111.042 59.2368C108.227 59.6266 105.415 59.7083 102.595 59.2992C102.244 59.2482 101.89 59.2126 101.478 59.1627C101.478 58.9634 101.478 58.7842 101.478 58.6049C101.475 51.8083 101.478 45.0116 101.463 38.215C101.46 36.8136 101.344 35.418 100.932 34.0256Z" fill="#F8F8F8"/>
<path d="M30.2355 53.8255C30.2355 55.0584 30.2238 56.2452 30.2435 57.4316C30.2486 57.7377 30.1396 57.8626 29.8565 57.9407C26.9133 58.7529 23.953 59.4687 20.9002 59.7614C18.2036 60.0199 15.5077 60.086 12.8108 59.8321C9.99662 59.5671 7.24875 59.0383 4.81829 57.4901C1.9651 55.6727 0.391311 53.0596 0.109019 49.721C-0.0413212 47.943 -0.111802 46.1495 0.414651 44.4026C1.19587 41.8103 2.87036 39.914 5.1555 38.5181C7.20844 37.264 9.47771 36.6226 11.8439 36.2627C14.565 35.8489 17.2905 35.9043 20.0204 36.1338C20.1419 36.1441 20.2651 36.1352 20.3859 36.1352C20.7382 33.5798 19.8591 31.1798 17.0253 30.4019C15.1149 29.8776 13.1541 29.8727 11.198 30.0023C9.03781 30.1455 6.93829 30.6199 4.89143 31.318C4.66709 31.3945 4.52864 31.3712 4.40564 31.1386C3.31105 29.0685 2.5737 26.906 2.58422 24.535C2.58557 24.2316 2.64977 24.0801 2.96992 23.9773C5.96363 23.0158 9.02567 22.4176 12.164 22.1844C14.1063 22.0402 16.0454 22.0364 17.9763 22.2887C20.8823 22.6683 23.5904 23.554 25.9034 25.4248C27.9002 27.0399 29.0331 29.166 29.6536 31.5969C30.0901 33.3072 30.2376 35.0514 30.2367 36.812C30.2336 42.4678 30.2355 48.1235 30.2355 53.8255ZM20.4598 44.1614C20.4598 43.6264 20.4598 43.0913 20.4598 42.532C19.8527 42.46 19.298 42.4024 18.7457 42.3273C16.8466 42.0691 14.9642 42.1487 13.1222 42.6803C11.2299 43.2264 9.78165 44.2605 9.46978 46.3526C9.04852 49.1785 10.082 51.1246 12.9267 51.9022C14.5027 52.333 16.1248 52.3236 17.7364 52.21C18.6403 52.1463 19.5337 51.9372 20.4599 51.789C20.4599 49.2396 20.4599 46.7467 20.4598 44.1614Z" fill="#F8F8F8"/>
<path d="M144.376 22.7465C147.172 22.2216 149.955 21.9686 152.757 22.1239C155.877 22.2967 158.863 22.9714 161.52 24.7198C164.016 26.3621 165.476 28.6991 166.203 31.5327C166.63 33.1982 166.79 34.8952 166.79 36.6099C166.79 43.5151 166.785 50.4202 166.801 57.3253C166.802 57.7341 166.656 57.8827 166.289 57.9843C163.585 58.7343 160.86 59.4049 158.066 59.7099C154.99 60.0458 151.905 60.1217 148.817 59.7682C146.521 59.5055 144.281 59.0616 142.221 57.974C138.881 56.2102 137.048 53.4292 136.64 49.7153C136.408 47.596 136.457 45.4906 137.302 43.4917C138.452 40.7676 140.535 38.9548 143.197 37.7371C145.351 36.7515 147.634 36.2115 149.982 36.0991C152.179 35.9941 154.386 36.1136 156.589 36.134C156.724 36.1353 156.86 36.1342 157.027 36.1342C157.081 34.5394 157.001 33.0201 155.879 31.7651C154.96 30.7364 153.738 30.3348 152.421 30.1495C148.72 29.629 145.119 30.1017 141.597 31.2713C141.221 31.3964 141.068 31.3244 140.888 30.9808C139.84 28.9714 139.16 26.8718 139.141 24.586C139.138 24.2446 139.197 24.0586 139.57 23.9673C141.162 23.5776 142.748 23.1579 144.376 22.7465ZM157.04 48.8779C157.04 46.7741 157.04 44.6703 157.04 42.5638C154.74 42.155 152.494 42.008 150.246 42.5295C149.257 42.7588 148.316 43.1066 147.513 43.7429C146.228 44.7624 145.911 46.1643 145.954 47.7048C146.007 49.5958 146.909 50.9441 148.681 51.6055C149.551 51.9302 150.503 52.0929 151.433 52.1954C153.31 52.4027 155.171 52.2003 157.04 51.745C157.04 50.8129 157.04 49.8916 157.04 48.8779Z" fill="#F8F8F8"/>
<path d="M47.0704 43.1903C47.1418 44.8497 47.1959 46.4638 47.2961 48.0751C47.3224 48.4972 47.463 48.9201 47.6009 49.326C48.0634 50.687 49.0602 51.3614 50.4775 51.5105C51.6005 51.6287 52.7068 51.5561 53.8093 51.3396C53.8985 51.3221 53.9918 51.3252 54.1572 51.3134C54.3197 52.0809 54.5441 52.8345 54.6276 53.6032C54.772 54.932 54.8658 56.2689 54.9123 57.6048C54.959 58.9476 54.9301 58.9966 53.616 59.2046C50.591 59.6836 47.5595 59.8512 44.5783 58.9405C40.7496 57.7708 38.3286 55.2575 37.5451 51.3397C37.2542 49.8851 37.088 48.381 37.0839 46.8988C37.0488 34.1102 37.0637 21.3214 37.0637 8.53268C37.0637 8.3501 37.0637 8.16752 37.0637 7.91823C38.0119 7.80739 38.9293 7.66727 39.852 7.59881C42.1037 7.43175 44.347 7.52251 46.5831 7.85561C46.9848 7.91545 47.0793 8.04471 47.079 8.42959C47.0685 20.0011 47.0704 31.5726 47.0704 43.1903Z" fill="#F8F8F8"/>
<path d="M126.751 22.9238C128.07 22.9238 129.342 22.9238 130.646 22.9238C130.646 35.0098 130.646 47.0664 130.646 59.1192C127.894 59.6905 123.935 59.7371 120.875 59.1257C120.875 49.6181 120.875 40.1013 120.875 30.5386C119.269 30.5386 117.707 30.5386 116.114 30.5386C115.557 27.9857 115.522 25.4776 116.109 22.9238C119.655 22.9238 123.18 22.9238 126.751 22.9238Z" fill="#F8F8F8"/>
<path d="M118.934 11.5725C119.056 10.2576 119.171 8.9866 119.313 7.71858C119.326 7.60494 119.5 7.43684 119.619 7.41767C122.893 6.89206 126.17 6.90448 129.444 7.4194C129.558 7.43723 129.713 7.61333 129.733 7.73423C130.101 9.9962 130.095 12.2731 129.96 14.5518C129.923 15.1802 129.796 15.8039 129.768 16.4323C129.751 16.8118 129.553 16.9053 129.247 16.9216C127.497 17.0151 125.747 17.1653 123.996 17.1759C122.619 17.1842 121.241 17.0162 119.863 16.9318C119.488 16.9089 119.295 16.7854 119.271 16.3534C119.184 14.7733 119.05 13.1958 118.934 11.5725Z" fill="#F8F8F8"/>
</svg>
