<svg width="133" height="134" viewBox="0 0 133 134" fill="none" xmlns="http://www.w3.org/2000/svg">
<g filter="url(#filter0_d_1245_1744)">
<path d="M90.8209 55.9719L84.3357 86.2961C83.8952 88.3557 81.8685 89.6682 79.8089 89.2278L43.0164 81.3592C40.9568 80.9187 39.6442 78.892 40.0847 76.8324L46.5699 46.5083L48.0179 45.5505L89.7285 54.4709L90.8209 55.9719Z" fill="white"/>
<path d="M92.2109 49.4736L90.8211 55.9719L46.5701 46.5083L47.9598 40.01C48.3967 37.967 50.4073 36.6649 52.4502 37.1018L89.3027 44.9832C91.3457 45.4201 92.6478 47.4307 92.2109 49.4736Z" fill="url(#paint0_linear_1245_1744)"/>
<path d="M52.2607 70.875L54.3524 69.0049C55.0898 70.0874 56.0742 70.976 57.3455 71.2479C58.8248 71.5642 59.948 71.1295 60.1971 69.9649C60.4816 68.6345 59.8796 67.6487 56.5837 66.9439L57.1153 64.4583C59.8383 65.0406 60.8715 64.3958 61.1284 63.1945C61.3565 62.1279 60.8063 61.3794 59.6163 61.1248C58.5383 60.8943 57.6171 61.208 56.5004 61.8441L55.1824 59.327C56.8344 58.4265 58.5176 58.0114 60.3623 58.4059C63.5101 59.0791 65.2713 61.0178 64.7014 63.6825C64.3676 65.2433 63.2329 66.1706 61.4549 66.5083L61.4344 66.6037C63.0794 67.4783 64.0842 68.9849 63.6651 70.9445C63.0616 73.7663 60.135 74.8051 57.0856 74.153C54.6317 73.6281 53.0993 72.3904 52.2607 70.875Z" fill="black"/>
<path d="M66.209 72.8439L69.5219 73.5524L71.3972 64.7835L68.5586 64.1764L69.0241 61.9996C70.7161 62.0384 71.8769 61.8551 73.079 61.425L75.6658 61.9782L73.0301 74.3026L75.8683 74.9096L75.2628 77.7409L65.6035 75.6751L66.209 72.8439Z" fill="black"/>
<path d="M55.0124 43.2721C55.7661 43.4333 56.5078 42.9529 56.669 42.1992C56.8302 41.4455 56.3499 40.7039 55.5962 40.5427C54.8424 40.3815 54.1008 40.8618 53.9396 41.6155C53.7784 42.3692 54.2587 43.1109 55.0124 43.2721Z" fill="url(#paint1_radial_1245_1744)"/>
<path d="M56.5636 36.0188C56.1083 35.9214 55.6603 36.2116 55.563 36.6669L54.581 41.2584C54.4836 41.7137 54.7738 42.1617 55.2291 42.259C55.6843 42.3564 56.1323 42.0663 56.2297 41.611L57.2117 37.0195C57.309 36.5642 57.0189 36.1162 56.5636 36.0188Z" fill="url(#paint2_linear_1245_1744)"/>
<path d="M64.821 45.3701C65.5747 45.5313 66.3164 45.051 66.4776 44.2973C66.6388 43.5435 66.1584 42.8019 65.4047 42.6407C64.651 42.4795 63.9094 42.9598 63.7482 43.7135C63.587 44.4672 64.0673 45.2089 64.821 45.3701Z" fill="url(#paint3_radial_1245_1744)"/>
<path d="M66.3722 38.1168C65.9169 38.0194 65.4689 38.3095 65.3716 38.7648L64.3896 43.3563C64.2922 43.8116 64.5824 44.2596 65.0377 44.357C65.4929 44.4544 65.9409 44.1642 66.0383 43.7089L67.0203 39.1174C67.1176 38.6621 66.8275 38.2141 66.3722 38.1168Z" fill="url(#paint4_linear_1245_1744)"/>
<path d="M74.6306 47.4681C75.3843 47.6293 76.126 47.1489 76.2872 46.3952C76.4483 45.6415 75.968 44.8998 75.2143 44.7387C74.4606 44.5775 73.7189 45.0578 73.5577 45.8115C73.3966 46.5652 73.8769 47.3069 74.6306 47.4681Z" fill="url(#paint5_radial_1245_1744)"/>
<path d="M76.1818 40.2148C75.7265 40.1174 75.2785 40.4076 75.1811 40.8628L74.1992 45.4544C74.1018 45.9096 74.3919 46.3576 74.8472 46.455C75.3025 46.5524 75.7505 46.2622 75.8479 45.807L76.8298 41.2154C76.9272 40.7602 76.637 40.3121 76.1818 40.2148Z" fill="url(#paint6_linear_1245_1744)"/>
<path d="M84.4411 49.5661C85.1948 49.7273 85.9365 49.247 86.0977 48.4933C86.2589 47.7395 85.7786 46.9979 85.0249 46.8367C84.2712 46.6755 83.5295 47.1558 83.3683 47.9095C83.2071 48.6632 83.6874 49.4049 84.4411 49.5661Z" fill="url(#paint7_radial_1245_1744)"/>
<path d="M85.9923 42.3128C85.537 42.2155 85.089 42.5056 84.9917 42.9609L84.0097 47.5524C83.9123 48.0077 84.2025 48.4557 84.6578 48.5531C85.113 48.6504 85.5611 48.3603 85.6584 47.905L86.6404 43.3135C86.7377 42.8582 86.4476 42.4102 85.9923 42.3128Z" fill="url(#paint8_linear_1245_1744)"/>
</g>
<defs>
<filter id="filter0_d_1245_1744" x="0" y="0" width="132.295" height="133.313" filterUnits="userSpaceOnUse" color-interpolation-filters="sRGB">
<feFlood flood-opacity="0" result="BackgroundImageFix"/>
<feColorMatrix in="SourceAlpha" type="matrix" values="0 0 0 0 0 0 0 0 0 0 0 0 0 0 0 0 0 0 127 0" result="hardAlpha"/>
<feOffset dy="4"/>
<feGaussianBlur stdDeviation="20"/>
<feComposite in2="hardAlpha" operator="out"/>
<feColorMatrix type="matrix" values="0 0 0 0 0.392157 0 0 0 0 0.388235 0 0 0 0 0.388235 0 0 0 0.3 0"/>
<feBlend mode="normal" in2="BackgroundImageFix" result="effect1_dropShadow_1245_1744"/>
<feBlend mode="normal" in="SourceGraphic" in2="effect1_dropShadow_1245_1744" result="shape"/>
</filter>
<linearGradient id="paint0_linear_1245_1744" x1="70.7479" y1="41.6436" x2="68.7056" y2="51.1932" gradientUnits="userSpaceOnUse">
<stop stop-color="#E85F43"/>
<stop offset="1" stop-color="#E83636"/>
</linearGradient>
<radialGradient id="paint1_radial_1245_1744" cx="0" cy="0" r="1" gradientUnits="userSpaceOnUse" gradientTransform="translate(55.3043 41.9074) rotate(12.0716) scale(1.39557)">
<stop stop-color="#8C1F1F"/>
<stop offset="0.8426" stop-color="#450F0F"/>
<stop offset="1" stop-color="#2B0808"/>
</radialGradient>
<linearGradient id="paint2_linear_1245_1744" x1="55.072" y1="38.9626" x2="56.7207" y2="39.3152" gradientUnits="userSpaceOnUse">
<stop stop-color="#4F4F4F"/>
<stop offset="0.2929" stop-color="#BDBDBD"/>
<stop offset="0.6202" stop-color="#BDBDBD"/>
<stop offset="1" stop-color="#4F4F4F"/>
</linearGradient>
<radialGradient id="paint3_radial_1245_1744" cx="0" cy="0" r="1" gradientUnits="userSpaceOnUse" gradientTransform="translate(65.1129 44.0054) rotate(12.0716) scale(1.39557)">
<stop stop-color="#8C1F1F"/>
<stop offset="0.8426" stop-color="#450F0F"/>
<stop offset="1" stop-color="#2B0808"/>
</radialGradient>
<linearGradient id="paint4_linear_1245_1744" x1="64.8806" y1="41.0606" x2="66.5293" y2="41.4132" gradientUnits="userSpaceOnUse">
<stop stop-color="#4F4F4F"/>
<stop offset="0.2929" stop-color="#BDBDBD"/>
<stop offset="0.6202" stop-color="#BDBDBD"/>
<stop offset="1" stop-color="#4F4F4F"/>
</linearGradient>
<radialGradient id="paint5_radial_1245_1744" cx="0" cy="0" r="1" gradientUnits="userSpaceOnUse" gradientTransform="translate(74.9225 46.1034) rotate(12.0716) scale(1.39557)">
<stop stop-color="#8C1F1F"/>
<stop offset="0.8426" stop-color="#450F0F"/>
<stop offset="1" stop-color="#2B0808"/>
</radialGradient>
<linearGradient id="paint6_linear_1245_1744" x1="74.6902" y1="43.1586" x2="76.3389" y2="43.5112" gradientUnits="userSpaceOnUse">
<stop stop-color="#4F4F4F"/>
<stop offset="0.2929" stop-color="#BDBDBD"/>
<stop offset="0.6202" stop-color="#BDBDBD"/>
<stop offset="1" stop-color="#4F4F4F"/>
</linearGradient>
<radialGradient id="paint7_radial_1245_1744" cx="0" cy="0" r="1" gradientUnits="userSpaceOnUse" gradientTransform="translate(84.733 48.2014) rotate(12.0716) scale(1.39557)">
<stop stop-color="#8C1F1F"/>
<stop offset="0.8426" stop-color="#450F0F"/>
<stop offset="1" stop-color="#2B0808"/>
</radialGradient>
<linearGradient id="paint8_linear_1245_1744" x1="84.5007" y1="45.2566" x2="86.1494" y2="45.6092" gradientUnits="userSpaceOnUse">
<stop stop-color="#4F4F4F"/>
<stop offset="0.2929" stop-color="#BDBDBD"/>
<stop offset="0.6202" stop-color="#BDBDBD"/>
<stop offset="1" stop-color="#4F4F4F"/>
</linearGradient>
</defs>
</svg>
